<svg xmlns="http://www.w3.org/2000/svg" version="1.1" xmlns:xlink="http://www.w3.org/1999/xlink" width="200" height="200"><svg xmlns="http://www.w3.org/2000/svg" version="1.1" xmlns:xlink="http://www.w3.org/1999/xlink" viewBox="0 0 200 200"><rect width="200" height="200" fill="url('#gradient')"></rect><defs><linearGradient id="SvgjsLinearGradient1001" gradientTransform="rotate(0 0.5 0.5)"><stop offset="0%" stop-color="#f5f7f6"></stop><stop offset="100%" stop-color="#ffffff"></stop></linearGradient></defs><g><g fill="#000000" transform="matrix(1.7769023332160863,0,0,1.7769023332160863,24.091004536299764,112.62926572186262)" stroke="#405865" stroke-width="0"><path d="M6.85 0L1.07 0L1.07-14.22L6.18-14.22Q8.93-14.22 10.36-13.21Q11.79-12.21 11.79-10.29L11.79-10.29Q11.79-9.19 11.28-8.41Q10.77-7.63 9.79-7.26L9.79-7.26Q10.90-6.96 11.49-6.16Q12.09-5.36 12.09-4.21L12.09-4.21Q12.09-2.12 10.77-1.07Q9.44-0.02 6.85 0L6.85 0ZM6.90-6.04L4.50-6.04L4.50-2.64L6.75-2.64Q7.68-2.64 8.17-3.06Q8.67-3.49 8.67-4.26L8.67-4.26Q8.67-6.04 6.90-6.04L6.90-6.04ZM4.50-11.57L4.50-8.29L6.29-8.29Q7.41-8.30 7.89-8.70Q8.37-9.10 8.37-9.88L8.37-9.88Q8.37-10.78 7.85-11.18Q7.33-11.57 6.18-11.57L6.18-11.57L4.50-11.57ZM26.02-7.47L26.02-6.82Q26.02-4.74 25.24-3.13Q24.47-1.53 23.05-0.67Q21.63 0.20 19.81 0.20Q18.00 0.20 16.59-0.64Q15.19-1.47 14.40-3.03Q13.61-4.58 13.57-6.59L13.57-6.59L13.57-7.39Q13.57-9.48 14.34-11.08Q15.11-12.68 16.54-13.54Q17.97-14.41 19.79-14.41L19.79-14.41Q21.60-14.41 23.02-13.55Q24.43-12.70 25.22-11.11Q26.01-9.52 26.02-7.47L26.02-7.47ZM22.53-6.76L22.53-7.41Q22.53-9.53 21.82-10.63Q21.11-11.73 19.79-11.73L19.79-11.73Q17.22-11.73 17.07-7.86L17.07-7.86L17.06-6.82Q17.06-4.73 17.75-3.60Q18.45-2.48 19.81-2.48L19.81-2.48Q21.11-2.48 21.82-3.58Q22.52-4.69 22.53-6.76L22.53-6.76ZM39.82-7.47L39.82-6.82Q39.82-4.74 39.05-3.13Q38.28-1.53 36.86-0.67Q35.44 0.20 33.62 0.20Q31.81 0.20 30.40-0.64Q28.99-1.47 28.21-3.03Q27.42-4.58 27.38-6.59L27.38-6.59L27.38-7.39Q27.38-9.48 28.15-11.08Q28.92-12.68 30.35-13.54Q31.78-14.41 33.60-14.41L33.60-14.41Q35.41-14.41 36.83-13.55Q38.24-12.70 39.03-11.11Q39.81-9.52 39.82-7.47L39.82-7.47ZM36.34-6.76L36.34-7.41Q36.34-9.53 35.63-10.63Q34.92-11.73 33.60-11.73L33.60-11.73Q31.03-11.73 30.88-7.86L30.88-7.86L30.87-6.82Q30.87-4.73 31.56-3.60Q32.26-2.48 33.62-2.48L33.62-2.48Q34.92-2.48 35.63-3.58Q36.33-4.69 36.34-6.76L36.34-6.76ZM49.45 0L46.43-5.29L45.02-3.75L45.02 0L41.59 0L41.59-14.22L45.02-14.22L45.02-7.95L46.21-9.76L49.28-14.22L53.52-14.22L48.71-7.93L53.52 0L49.45 0ZM58.04-14.22L58.04 0L54.62 0L54.62-14.22L58.04-14.22ZM68.28 0L65.25-5.29L63.85-3.75L63.85 0L60.42 0L60.42-14.22L63.85-14.22L63.85-7.95L65.04-9.76L68.11-14.22L72.34-14.22L67.54-7.93L72.34 0L68.28 0ZM80.94-14.22L84.37-14.22L84.37-4.91Q84.37-3.33 83.69-2.17Q83.02-1.02 81.76-0.41Q80.50 0.20 78.78 0.20L78.78 0.20Q76.18 0.20 74.69-1.15Q73.19-2.50 73.16-4.84L73.16-4.84L73.16-14.22L76.61-14.22L76.61-4.78Q76.67-2.44 78.78-2.44L78.78-2.44Q79.84-2.44 80.39-3.03Q80.94-3.61 80.94-4.93L80.94-4.93L80.94-14.22Z"></path></g></g></svg><style>@media (prefers-color-scheme: light) { :root { filter: none; } }
@media (prefers-color-scheme: dark) { :root { filter: none; } }
</style></svg>